<svg xmlns="http://www.w3.org/2000/svg" viewBox="0 0 1971.1 375.82"><defs><style>.cls-1{fill:#f8f8f8;}</style></defs><g id="Layer_2" data-name="Layer 2"><g id="Layer_1-2" data-name="Layer 1"><path class="cls-1" d="M469.78,97.23A8.52,8.52,0,0,1,475,98.94a8.37,8.37,0,0,1,3.09,4.68L498.56,176H473.32l-11.88-51.27c-.3-1.45-.57-3-.79-4.51s-.43-3.07-.58-4.52H457c-.15,1.45-.34,3-.57,4.52s-.49,3.06-.8,4.51L443.74,176H418.51L439,103.62A8.36,8.36,0,0,1,442,98.94a8.54,8.54,0,0,1,5.26-1.71Zm9.71,44.42V159H437.58V141.65Z"/><path class="cls-1" d="M548.35,96.08q11.64,0,18.95,2.17t10.8,7.37q3.48,5.19,3.48,14.44a26.14,26.14,0,0,1-1.43,8.74,14.06,14.06,0,0,1-4.91,6.68q-3.48,2.63-9.65,3.31v.69a17.54,17.54,0,0,1,4.8,1.31,13.73,13.73,0,0,1,4.91,3.65,15.35,15.35,0,0,1,3.2,7.37L584.66,176H558.74l-5.14-23.41c-.46-2.21-1.16-3.65-2.11-4.34a8.13,8.13,0,0,0-4.63-1q-8.57-.11-14-.11c-3.61,0-6.68,0-9.19-.12s-5-.18-7.54-.34l.35-16.9h31.29a17.4,17.4,0,0,0,5.48-.68,4.32,4.32,0,0,0,2.68-2.46,17,17,0,0,0,0-10,4.34,4.34,0,0,0-2.68-2.4,17.11,17.11,0,0,0-5.48-.68q-11.88,0-20,.11c-5.41.08-9.09.23-11.07.46l-1.83-16.9q5.25-.57,9.88-.8c3.08-.16,6.47-.25,10.16-.29S543.09,96.08,548.35,96.08Zm-9.14,1.15V176H514.89V97.23Z"/><path class="cls-1" d="M667,97.23v18.49H598.14V97.23Zm-22,0V176H620.18V97.23Z"/><path class="cls-1" d="M710.16,97.23V176H685.61V97.23Z"/><path class="cls-1" d="M752.07,96.77q6.61,0,13.7.06t13.82.4c4.49.22,8.53.61,12.11,1.14l-1.15,17.35H763a5.28,5.28,0,0,0-3.59,1.15,3.74,3.74,0,0,0-1.32,3V176H733.34V114.7a17,17,0,0,1,5.26-13Q743.85,96.76,752.07,96.77ZM735.4,129.09h50.93v16.44H735.4Z"/><path class="cls-1" d="M835.2,97.23V176H810.65V97.23Z"/><path class="cls-1" d="M892.07,95.86q6.18,0,10.51.34c2.89.23,5.54.55,7.93,1A68.22,68.22,0,0,1,918,98.94l-1.83,18q-4-.11-7.42-.11t-7.31-.06q-3.88-.06-9.37-.06a9.49,9.49,0,0,0-6,1.66q-2.12,1.65-2.92,5.94a71.73,71.73,0,0,0-.79,12.27,71.94,71.94,0,0,0,.79,12.28q.81,4.28,2.92,5.94a9.55,9.55,0,0,0,6,1.65q8.56,0,14.34-.17t11.47-.74l1.83,18a63.53,63.53,0,0,1-12.16,2.91,116.67,116.67,0,0,1-15.48.86q-13,0-20.9-3.94a23.2,23.2,0,0,1-11.36-12.85q-3.48-8.9-3.48-24t3.48-24a23.2,23.2,0,0,1,11.36-12.85Q879.06,95.86,892.07,95.86Z"/><path class="cls-1" d="M963.79,97.23V176H939.23V97.23Z"/><path class="cls-1" d="M1031.5,97.23a8.56,8.56,0,0,1,5.26,1.71,8.36,8.36,0,0,1,3.08,4.68l20.44,72.4h-25.23l-11.88-51.27c-.31-1.45-.57-3-.8-4.51s-.42-3.07-.57-4.52h-3.09c-.15,1.45-.34,3-.57,4.52s-.49,3.06-.8,4.51L1005.47,176H980.23l20.44-72.4a8.32,8.32,0,0,1,3.09-4.68,8.52,8.52,0,0,1,5.25-1.71Zm9.71,44.42V159H999.3V141.65Z"/><path class="cls-1" d="M1101.16,97.23v55a3.74,3.74,0,0,0,1.32,3,5.1,5.1,0,0,0,3.48,1.14h26.49l1.14,18.5a180,180,0,0,1-18.78,1.37q-10,.23-19.7.23-8.56,0-13.65-5t-5.08-13V97.23Z"/><path class="cls-1" d="M1209.31,97.23V176h-24.56V97.23Z"/><path class="cls-1" d="M1305.23,97.23v70.22q0,8.56-8.56,8.57h-9.48q-3.89,0-5.77-1.83a22.6,22.6,0,0,1-3.83-5.36l-17.12-27.07a53.36,53.36,0,0,1-2.92-6.45q-1.3-3.48-2.34-7h-.8c.38,2.36.67,4.77.86,7.25s.28,4.85.28,7.13V176h-22.83V105.79q0-8.57,8.56-8.56h9.48q3.88,0,5.71,1.82a26.55,26.55,0,0,1,3.88,5.37l16.44,25.81q1.61,2.85,3.15,6.28c1,2.28,2,4.68,2.91,7.19h.8q-.47-3.64-.75-7.19c-.18-2.36-.28-4.72-.28-7.08l-.11-32.2Z"/><path class="cls-1" d="M1392.47,97.23v18.49h-68.86V97.23Zm-22,0V176h-24.78V97.23Z"/><path class="cls-1" d="M1428.9,96.77q6.86,0,14.1.06t14.22.34q7,.28,12.68,1.08l-1.15,17.47h-28.89a4.88,4.88,0,0,0-3.42,1.15,3.82,3.82,0,0,0-1.26,3v33.57a3.82,3.82,0,0,0,1.26,3,4.87,4.87,0,0,0,3.42,1.14h28.89L1469.9,175q-5.72.69-12.68,1t-14.22.4q-7.24.06-14.1.06a18.45,18.45,0,0,1-13.3-5q-5.2-5-5.2-13V114.7q0-8,5.2-13T1428.9,96.77Zm-16.45,30.72h52.19v16.44h-52.19Z"/><path class="cls-1" d="M1515,97.23v55a3.74,3.74,0,0,0,1.32,3,5.1,5.1,0,0,0,3.48,1.14h26.49l1.14,18.5a180,180,0,0,1-18.78,1.37q-10,.23-19.7.23-8.57,0-13.65-5t-5.08-13V97.23Z"/><path class="cls-1" d="M1583.4,96.77q6.86,0,14.11.06t14.22.34q7,.28,12.67,1.08l-1.14,17.47h-28.89a4.92,4.92,0,0,0-3.43,1.15,3.81,3.81,0,0,0-1.25,3v33.57a3.81,3.81,0,0,0,1.25,3,4.92,4.92,0,0,0,3.43,1.14h28.89L1624.4,175q-5.72.69-12.67,1t-14.22.4q-7.26.06-14.11.06a18.48,18.48,0,0,1-13.3-5q-5.2-5-5.19-13V114.7q0-8,5.19-13A18.44,18.44,0,0,1,1583.4,96.77ZM1567,127.49h52.19v16.44H1567Z"/><path class="cls-1" d="M1679,95.63q6.29,0,11,.34t8.79,1a63.55,63.55,0,0,1,8.17,1.94l-1.83,17.81q-4.34-.1-8.28-.11t-8.17-.06q-4.21-.06-9.59-.06a15.07,15.07,0,0,0-5.48.86,6.67,6.67,0,0,0-3.42,3.08,17.21,17.21,0,0,0-1.77,6.17,78.22,78.22,0,0,0-.52,10,61.76,61.76,0,0,0,.92,12.28q.9,4.28,3.08,5.94a9.78,9.78,0,0,0,6,1.65c1.68,0,3.22-.06,4.62-.17a34.34,34.34,0,0,0,3.83-.51l2.74-.57,2.4,10.39a24.57,24.57,0,0,1-4.51,5.14,27.35,27.35,0,0,1-7.94,4.85,28.67,28.67,0,0,1-11.08,2q-9,0-14.84-4.05t-8.57-13.08q-2.73-9-2.74-23.87,0-15.18,3.6-24.15a23.36,23.36,0,0,1,11.76-12.9Q1665.39,95.63,1679,95.63Zm31.29,35.05V176H1692l-3.2-12.22-2.28-4.22v-28.9Z"/><path class="cls-1" d="M1749.79,96.77q6.86,0,14.1.06t14.22.34q7,.28,12.68,1.08l-1.15,17.47h-28.89a4.88,4.88,0,0,0-3.42,1.15,3.82,3.82,0,0,0-1.26,3v33.57a3.82,3.82,0,0,0,1.26,3,4.87,4.87,0,0,0,3.42,1.14h28.89l1.15,17.47q-5.71.69-12.68,1t-14.22.4q-7.25.06-14.1.06a18.45,18.45,0,0,1-13.3-5q-5.21-5-5.2-13V114.7q0-8,5.2-13T1749.79,96.77Zm-16.45,30.72h52.19v16.44h-52.19Z"/><path class="cls-1" d="M1883.86,97.23v70.22q0,8.56-8.57,8.57h-9.48q-3.88,0-5.77-1.83a22.6,22.6,0,0,1-3.82-5.36l-17.13-27.07a51.84,51.84,0,0,1-2.91-6.45q-1.32-3.48-2.34-7h-.8c.38,2.36.66,4.77.86,7.25s.28,4.85.28,7.13V176h-22.84V105.79q0-8.57,8.57-8.56h9.47c2.59,0,4.5.61,5.71,1.82a26.53,26.53,0,0,1,3.89,5.37l16.44,25.81c1.07,1.9,2.11,4,3.14,6.28s2,4.68,2.91,7.19h.8q-.45-3.64-.74-7.19t-.28-7.08l-.12-32.2Z"/><path class="cls-1" d="M1971.1,97.23v18.49h-68.86V97.23Zm-22,0V176h-24.78V97.23Z"/><path class="cls-1" d="M468.23,222.24V230H419.39v-7.79Zm-19.93,0v62.52h-9.06V222.24Z"/><path class="cls-1" d="M561.57,221.42a37.69,37.69,0,0,1,12,1.58,11.43,11.43,0,0,1,6.66,5.53q2.09,3.94,2.08,11a25.57,25.57,0,0,1-1.17,8.34,11,11,0,0,1-3.67,5.25,13.85,13.85,0,0,1-6.75,2.45V256a9,9,0,0,1,3.08,1.45,13.13,13.13,0,0,1,2.9,2.95,12.51,12.51,0,0,1,2,4.66l5.89,19.67H575l-5.44-19.48a9.62,9.62,0,0,0-3-4.9,8,8,0,0,0-5-1.45q-5.72,0-9.79,0t-6.84-.14c-1.85-.06-3.34-.09-4.49-.09l.27-7.25h20.67a21.89,21.89,0,0,0,7-1A6.37,6.37,0,0,0,572,247a16.88,16.88,0,0,0,1.13-6.89,16.62,16.62,0,0,0-1.13-6.84,6.41,6.41,0,0,0-3.67-3.35,20.6,20.6,0,0,0-7-.95q-7.62,0-13.14.09t-7.44.09l-1.26-6.88q3.44-.37,6.52-.55c2-.12,4.31-.2,6.75-.23S558.18,221.42,561.57,221.42Zm-13.05.82v62.52h-9V222.24Z"/><path class="cls-1" d="M683.08,222.24a3.38,3.38,0,0,1,2.08.67,3.58,3.58,0,0,1,1.27,1.77l19.75,60.08h-9.42l-15.58-50.29c-.25-.85-.49-1.74-.73-2.68s-.49-1.79-.73-2.58h-2.53q-.36,1.18-.72,2.58c-.25.94-.52,1.83-.82,2.68l-15.59,50.29h-9.33l19.75-60.08a3.65,3.65,0,0,1,1.27-1.77,3.41,3.41,0,0,1,2.09-.67Zm11.23,36v7.52H662.42v-7.52Z"/><path class="cls-1" d="M825.07,222.24v59q0,3.54-3.35,3.54h-7.8a3.6,3.6,0,0,1-2.4-.73A5.9,5.9,0,0,1,810,282l-20.48-42.23c-.54-1.2-1.18-2.58-1.91-4.12a27.85,27.85,0,0,1-1.63-4.3h-1.35c.11,1.39.21,2.79.27,4.21s.09,2.85.09,4.3v44.95h-8.88v-59c0-2.36,1.14-3.53,3.44-3.53h7.52a3.84,3.84,0,0,1,2.45.72,5.71,5.71,0,0,1,1.54,2.08l19.76,41.14q1,1.9,2.12,4.35t2.22,4.8h1.45c-.12-1.63-.21-3.24-.27-4.84s-.09-3.19-.09-4.76V222.24Z"/><path class="cls-1" d="M919.85,221.15q4.53.09,9.38.45a66.34,66.34,0,0,1,9.65,1.45l-.63,6.43c-2.6-.12-5.51-.21-8.75-.27s-6.35-.09-9.38-.09q-3.17,0-5.43.18a9.11,9.11,0,0,0-3.72,1,4.85,4.85,0,0,0-2.13,2.63,14.72,14.72,0,0,0-.68,5q0,4.8,1.82,6.75a11.7,11.7,0,0,0,5.88,3l12.6,3.35q7.24,1.81,10,6.12t2.72,11.55a26,26,0,0,1-1.23,8.79,10.39,10.39,0,0,1-3.8,5.16,16.42,16.42,0,0,1-6.66,2.54,56.6,56.6,0,0,1-9.7.72q-3.07,0-8.15-.27A86.94,86.94,0,0,1,899.92,284l.63-6.61q5.34.18,8.75.32c2.26.09,4.21.13,5.84.13H920a29.4,29.4,0,0,0,7.16-.68,5.54,5.54,0,0,0,3.72-2.72,12.94,12.94,0,0,0,1.09-5.93,13.86,13.86,0,0,0-.78-5.21,5.8,5.8,0,0,0-2.44-2.86,16.13,16.13,0,0,0-4.31-1.63l-13-3.53q-6.9-1.81-9.65-6.07t-2.77-11.42a26.07,26.07,0,0,1,1.23-8.79,9.79,9.79,0,0,1,3.76-5,15.75,15.75,0,0,1,6.43-2.26A62.53,62.53,0,0,1,919.85,221.15Z"/><path class="cls-1" d="M1036.75,221.42q7.7,0,12.23,1.72a11.21,11.21,0,0,1,6.48,6q1.95,4.26,1.94,12t-1.9,12a10.85,10.85,0,0,1-6.2,6,32.24,32.24,0,0,1-11.47,1.68q-3.9,0-7.47-.19t-6.57-.54c-2-.24-3.7-.5-5.12-.77a15.58,15.58,0,0,1-2.95-.77l.27-5.26h20.67a20.37,20.37,0,0,0,6.88-1.08,6.33,6.33,0,0,0,3.63-3.63,20.18,20.18,0,0,0,1.08-7.43,20.53,20.53,0,0,0-1.08-7.52,6.52,6.52,0,0,0-3.63-3.67,18.64,18.64,0,0,0-6.88-1q-7.62,0-13.14.09t-7.44.27l-1.26-7.06q3.43-.37,6.52-.55t6.71-.23Q1031.67,221.42,1036.75,221.42Zm-12.87.82v62.52h-9.06V222.24Z"/><path class="cls-1" d="M1153.18,221.06a37,37,0,0,1,11.74,1.63,16.08,16.08,0,0,1,7.75,5.34,24.19,24.19,0,0,1,4.21,10,76.77,76.77,0,0,1,1.31,15.5,76.85,76.85,0,0,1-1.31,15.45,24.2,24.2,0,0,1-4.21,10,16.1,16.1,0,0,1-7.75,5.35,43.06,43.06,0,0,1-23.47,0,16.31,16.31,0,0,1-7.79-5.35,24.1,24.1,0,0,1-4.31-10,88.72,88.72,0,0,1,0-30.95,24.09,24.09,0,0,1,4.31-10,16.29,16.29,0,0,1,7.79-5.34A36.93,36.93,0,0,1,1153.18,221.06Zm0,7.88q-5.88,0-9.33,2.27t-4.85,7.56a60.6,60.6,0,0,0-1.4,14.73,60.76,60.76,0,0,0,1.4,14.68q1.41,5.34,4.85,7.61t9.33,2.26q5.89,0,9.29-2.26t4.85-7.61a58.9,58.9,0,0,0,1.45-14.68,58.74,58.74,0,0,0-1.45-14.73q-1.46-5.29-4.85-7.56T1153.18,228.94Z"/><path class="cls-1" d="M1274.88,221.42a37.75,37.75,0,0,1,12,1.58,11.43,11.43,0,0,1,6.66,5.53q2.09,3.94,2.08,11a25.29,25.29,0,0,1-1.18,8.34,10.87,10.87,0,0,1-3.67,5.25,13.81,13.81,0,0,1-6.75,2.45V256a9,9,0,0,1,3.08,1.45,12.72,12.72,0,0,1,2.9,2.95,12.52,12.52,0,0,1,2,4.66l5.89,19.67h-9.61l-5.44-19.48a9.62,9.62,0,0,0-3-4.9,8.08,8.08,0,0,0-5-1.45c-3.8,0-7.07,0-9.78,0s-5-.08-6.85-.14-3.34-.09-4.48-.09l.27-7.25h20.66a22,22,0,0,0,7-1,6.37,6.37,0,0,0,3.67-3.4,16.88,16.88,0,0,0,1.13-6.89,16.62,16.62,0,0,0-1.13-6.84,6.41,6.41,0,0,0-3.67-3.35,20.66,20.66,0,0,0-7-.95q-7.6,0-13.14.09t-7.43.09l-1.27-6.88q3.45-.37,6.52-.55t6.76-.23C1268.58,221.43,1271.5,221.42,1274.88,221.42Zm-13.05.82v62.52h-9V222.24Z"/><path class="cls-1" d="M1413.34,222.24V230H1364.5v-7.79Zm-19.93,0v62.52h-9.07V222.24Z"/><path class="cls-1" d="M1504.77,222.24a3.38,3.38,0,0,1,2.08.67,3.58,3.58,0,0,1,1.27,1.77l19.76,60.08h-9.43l-15.58-50.29c-.24-.85-.48-1.74-.73-2.68s-.48-1.79-.72-2.58h-2.54q-.36,1.18-.72,2.58c-.25.94-.52,1.83-.82,2.68l-15.59,50.29h-9.33l19.75-60.08a3.6,3.6,0,0,1,1.28-1.77,3.36,3.36,0,0,1,2.08-.67Zm11.23,36v7.52h-31.89v-7.52Z"/><path class="cls-1" d="M1635.8,222.24V230H1587v-7.79Zm-19.94,0v62.52h-9.06V222.24Z"/><path class="cls-1" d="M1716.17,222.24v62.52h-9.06V222.24Z"/><path class="cls-1" d="M1815.85,221.06a36.93,36.93,0,0,1,11.73,1.63,16,16,0,0,1,7.75,5.34,24.05,24.05,0,0,1,4.21,10,91.37,91.37,0,0,1,0,30.95,24.07,24.07,0,0,1-4.21,10,16,16,0,0,1-7.75,5.35,43.06,43.06,0,0,1-23.47,0,16.31,16.31,0,0,1-7.79-5.35,24.1,24.1,0,0,1-4.3-10,74.35,74.35,0,0,1-1.36-15.45A74.27,74.27,0,0,1,1792,238a24.09,24.09,0,0,1,4.3-10,16.29,16.29,0,0,1,7.79-5.34A37,37,0,0,1,1815.85,221.06Zm0,7.88q-5.89,0-9.34,2.27t-4.84,7.56a60,60,0,0,0-1.41,14.73,60.18,60.18,0,0,0,1.41,14.68q1.39,5.34,4.84,7.61t9.34,2.26c3.93,0,7-.75,9.29-2.26s3.88-4.05,4.85-7.61a58.9,58.9,0,0,0,1.45-14.68,58.74,58.74,0,0,0-1.45-14.73q-1.46-5.29-4.85-7.56C1822.87,229.7,1819.78,228.94,1815.85,228.94Z"/><path class="cls-1" d="M1964.46,222.24v59q0,3.54-3.36,3.54h-7.79a3.59,3.59,0,0,1-2.4-.73,5.9,5.9,0,0,1-1.49-2.08l-20.48-42.23c-.55-1.2-1.18-2.58-1.91-4.12a27.85,27.85,0,0,1-1.63-4.3H1924c.12,1.39.21,2.79.27,4.21s.09,2.85.09,4.3v44.95h-8.88v-59c0-2.36,1.15-3.53,3.45-3.53h7.52a3.84,3.84,0,0,1,2.45.72,5.82,5.82,0,0,1,1.54,2.08l19.75,41.14c.67,1.27,1.37,2.72,2.13,4.35s1.5,3.23,2.22,4.8H1956c-.12-1.63-.21-3.24-.27-4.84s-.09-3.19-.09-4.76V222.24Z"/><path class="cls-1" d="M212.81,321.62V344a9.39,9.39,0,0,1-4.69,8.13h0a9.41,9.41,0,0,1-9.38,0h0A9.37,9.37,0,0,1,194,344V321.62a9.4,9.4,0,0,1,4.69-8.13h0a9.38,9.38,0,0,1,9.39,0h0A9.4,9.4,0,0,1,212.81,321.62Z"/><path class="cls-1" d="M290.43,254.4v44.82a9.4,9.4,0,0,1-4.69,8.13h0a9.43,9.43,0,0,1-9.39,0h0a9.4,9.4,0,0,1-4.69-8.13V254.4a9.37,9.37,0,0,1,4.69-8.12h0a9.38,9.38,0,0,1,9.39,0h0A9.37,9.37,0,0,1,290.43,254.4Z"/><path class="cls-1" d="M251.62,232v89.62a9.4,9.4,0,0,1-4.69,8.13h0a9.36,9.36,0,0,1-9.38,0h0a9.37,9.37,0,0,1-4.69-8.12V232a9.39,9.39,0,0,1,4.69-8.13h0a9.36,9.36,0,0,1,9.38,0h0A9.39,9.39,0,0,1,251.62,232Z"/><path class="cls-1" d="M212.81,253.65v17.74a18.76,18.76,0,0,1-9.38,16.25h0l-.64.37L194,293.06l-.63.37L184,298.85l-.63.36h0A18.78,18.78,0,0,0,174,315.47v51a9.38,9.38,0,0,1-17.51,4.69,9.48,9.48,0,0,1-1.25-4.69v-61.8a18.76,18.76,0,0,1,9.4-16.27l.61-.35L174,283l.63-.36,9.39-5.42.64-.37h0A18.76,18.76,0,0,0,194,260.57v-6.89a9.34,9.34,0,0,1,4.72-8.12l.06,0a9.37,9.37,0,0,1,9.31,0h0A9.34,9.34,0,0,1,212.81,253.65Z"/><path class="cls-1" d="M135.2,215V344a9.37,9.37,0,0,1-4.69,8.12h0a9.38,9.38,0,0,1-9.39,0h0a9.35,9.35,0,0,1-4.69-8.12V225.85a18.76,18.76,0,0,0-9.38-16.25h0l-.64-.37L97,203.81l-.63-.37-8.75-5.05h0L87,198h0l-4.69-2.71a9.39,9.39,0,0,1-4.7-8.13h0a9.36,9.36,0,0,1,4.7-8.12h0a9.36,9.36,0,0,1,9.38,0l4.7,2.71.63.37,8.75,5,.63.37,9.39,5.42.64.37,8.74,5,.64.37h0A18.76,18.76,0,0,1,135.2,215Z"/><path class="cls-1" d="M57.58,252.35v46.87a9.37,9.37,0,0,1-4.7,8.12h0a9.36,9.36,0,0,1-9.38,0h0a9.39,9.39,0,0,1-4.69-8.12V263.68a6.69,6.69,0,0,0-3.34-5.79l-6-3.49-.63-.37-5.45-3.14a3,3,0,0,0-4.57,2.64v23.28a9.37,9.37,0,0,1-4.69,8.12h0a9.38,9.38,0,0,1-9.38,0h0A9.37,9.37,0,0,1,0,276.81v-51a5.84,5.84,0,0,1,8.75-5.05h0l.63.37,9.39,5.42.64.37L28.15,232l.64.36,9.39,5.43.63.36,8.74,5,.64.37,6.47,3.73A5.85,5.85,0,0,1,57.58,252.35Z"/><path class="cls-1" d="M329.24,103v39.39a9.39,9.39,0,0,1-4.69,8.13h0a9.38,9.38,0,0,1-9.39,0h0a9.4,9.4,0,0,1-4.69-8.13V113.82a18.77,18.77,0,0,0-9.39-16.26h0l-.64-.37-9.38-5.41-.63-.37-8.75-5L281,86l-4.69-2.71a9.37,9.37,0,0,1-4.69-8.12h0A9.39,9.39,0,0,1,276.35,67h0a9.38,9.38,0,0,1,9.39,0l4.69,2.71.63.36,8.75,5.06.64.36,9.38,5.42.64.36,8.74,5.06.64.37h0A18.75,18.75,0,0,1,329.24,103Z"/><path class="cls-1" d="M96.39,237.42v84.2a9.39,9.39,0,0,1-4.7,8.13h0a9.41,9.41,0,0,1-9.38,0h0a9.39,9.39,0,0,1-4.7-8.13V248.25A18.76,18.76,0,0,0,68.23,232h0l-.64-.37-9.38-5.42-.63-.36-8.75-5.06-.64-.36L38.81,215l-.63-.36-8.76-5.06-.64-.37-9.37-5.41-.64-.37L10,198.39,9.38,198l-4.69-2.71A9.4,9.4,0,0,1,0,187.19H0a9.37,9.37,0,0,1,4.69-8.12h0a9.36,9.36,0,0,1,9.38,0l4.7,2.71.64.37,8.74,5,.64.37L38.18,193l.63.36,8.74,5,.64.37,9.39,5.41.63.37L67,209.59l.64.37L77,215.38l.63.36,8.75,5,.64.37h0A18.77,18.77,0,0,1,96.39,237.42Z"/><path class="cls-1" d="M329.24,187.17V277a9.1,9.1,0,0,1-4.55,7.88l-.24.14a9.15,9.15,0,0,1-9.15,0l-.14-.09a9.35,9.35,0,0,1-4.69-8.12V215a6.68,6.68,0,0,0-10-5.79h0l-.64.37-8.75,5.06-.63.36-4.83,2.79a9.1,9.1,0,0,1-9.1,0l-.12-.07a9.38,9.38,0,0,1-4.72-8.14V136.22A18.75,18.75,0,0,0,262.27,120h0l-.63-.37-9.38-5.42-.64-.37-8.75-5-.64-.36L232.85,103l-.63-.37-8.75-5-.64-.37-9.38-5.41-.64-.37-8.75-5-.63-.37-4.7-2.71A9.38,9.38,0,0,1,194,75.15h0A9.39,9.39,0,0,1,198.73,67h0a9.38,9.38,0,0,1,9.39,0l4.69,2.71.64.36,8.75,5.06.63.36,9.39,5.42.63.36,8.75,5.06.63.37h0l9.38,5.41.64.37,8.74,5,.64.37,9.39,5.42.63.36,8.74,5.05h0l.63.37h0a18.76,18.76,0,0,1,9.39,16.25v56.39a6.68,6.68,0,0,0,10,5.78h0l.63-.37,8.75-5,.64-.37,4.83-2.8a9.15,9.15,0,0,1,9.11,0l.14.08A9.39,9.39,0,0,1,329.24,187.17Z"/><path class="cls-1" d="M174,191.87v63.27a8.1,8.1,0,0,1-4.05,7l-1.28.74a8.15,8.15,0,0,1-8.11,0l-1.27-.74a8.1,8.1,0,0,1-4-7v-51.7a18.78,18.78,0,0,0-9.39-16.26h0l-.64-.36-9.38-5.42-.63-.37L126.45,176l-.64-.37-9.38-5.41-.64-.37L107,164.78l-.63-.37L97,159l-.63-.36-8.75-5-.64-.37-.63.37-8.76,5L77,159l-9.38,5.42-.64.37-8.75,5.05-.63.37-.64.37a17.49,17.49,0,0,1-17.49,0l-.64-.37-.63-.37-8.76-5.05-.64-.37L19.41,159l-.64-.37-8.75-5-.64-.37h0l-5.32-3.07a8.12,8.12,0,0,1-4.06-7v-1.47a8.13,8.13,0,0,1,4.05-7l1.28-.73a8.1,8.1,0,0,1,8.11,0L18.77,137l.64.36,8.74,5.05.64.37,9.39,5.42.63.37,8.74,5.05.64.36.64-.36,8.75-5.05.63-.37,9.38-5.42h0l.63-.37L77,137.32l.63-.36L87,131.54,96.39,137l.63.36,8.75,5.05.63.37,9.39,5.42.64.37,8.74,5.05.64.36,9.39,5.42.63.37,8.75,5.05.63.37,9.39,5.42.64.36,8.74,5,.64.37.63.37A17.47,17.47,0,0,1,174,191.87Z"/><path class="cls-1" d="M97,92.51a5.83,5.83,0,0,1,0,10.1h0l-.63.37L87,108.4l-.63.36-8.76,5-.63.37L67.6,119.6,67,120l-8.75,5-.63.36h0a18.74,18.74,0,0,1-18.77,0h0l-.63-.36-8.75-5-.64-.37-9.38-5.42-.64-.37-8.75-5-.63-.36-4.7-2.71A9.4,9.4,0,0,1,0,97.56H0a9.37,9.37,0,0,1,4.69-8.12h0a9.41,9.41,0,0,1,9.38,0l4.7,2.71.64.37,8.74,5,.64.37,9.39,5.42.63.36,7.82,4.52a3.11,3.11,0,0,0,3.12,0l7.83-4.52.63-.36,5.35-3.09a3.12,3.12,0,0,0,0-5.4l-5.35-3.09-.63-.36-8.75-5L48.19,86,43.5,83.28a9.37,9.37,0,0,1-4.69-8.12h0A9.4,9.4,0,0,1,43.5,67h0a9.41,9.41,0,0,1,9.38,0l4.7,2.71.63.37L67,75.16l.64.36L77,80.93l.63.37,8.77,5.06.62.36,9.39,5.42.63.37Z"/><path class="cls-1" d="M251.62,147.06V182.5a17.49,17.49,0,0,1-8.74,15.15l-.64.37-.64.37-8.75,5.05-.63.37-9.39,5.41-.64.37-8.74,5-.64.37-5.33,3.07a8.1,8.1,0,0,1-8.11,0l-1.27-.73a8.12,8.12,0,0,1-4.06-7V170.2l-.63-.37-8.75-5.05-.64-.37L174.63,159l-.63-.36-8.74-5-.64-.37-9.38-5.42-.64-.37-8.75-5-.64-.36-9.38-5.42-.63-.37-8.75-5.05-.64-.37-9.38-5.42-.64-.36-1.91-1.1a4.56,4.56,0,0,1,0-7.9l1.91-1.11.64-.36,9.38-5.42.63-.37,8.76-5.05.63-.37,9.38-5.41.64-.37-.64-.37-9.38-5.41-.63-.37-8.75-5-.64-.37-9.38-5.42-.64-.36-8.75-5-.63-.37L97,69.37,96.39,69l-8.75-5L87,63.58l-5.33-3.07a8.12,8.12,0,0,1-4.06-7V52a8.12,8.12,0,0,1,4.06-7L83,44.25a8.1,8.1,0,0,1,8.11,0l5.33,3.08.63.36,8.75,5.06.64.37,9.38,5.41.64.37L125.18,64l.63.36h0l9.39,5.42.63.37,8.75,5.06h0l.63.36,9.38,5.42.64.36,8.74,5,.64.37,5.32,3.07a8.12,8.12,0,0,1,4.06,7v1.47a8.12,8.12,0,0,1-4.06,7l-5.32,3.08-.64.36-8.74,5-.64.37h0a6.68,6.68,0,0,0,0,11.57h0l.64.36,8.74,5.06.64.36h0L174,137l.63.37,8.76,5.05.63.37,9.39,5.41.63.37,8.75,5,.64.37.64.37a17.47,17.47,0,0,1,8.74,15.14V184a5.4,5.4,0,0,0,8.11,4.68l1.91-1.1.64-.37,6.68-3.85a5.42,5.42,0,0,0,2.7-4.69v-20a18.79,18.79,0,0,0-9.38-16.25h0l-.64-.36-9.38-5.42-.64-.37-8.75-5.05-.63-.37-5.33-3.07a8.12,8.12,0,0,1-4.06-7v-1.47a8.12,8.12,0,0,1,4.05-7l1.28-.74a8.12,8.12,0,0,1,8.12,0l5.32,3.07.64.37L222.2,120l.63.37,9.39,5.41.63.36,8.75,5,.64.37.64.37A17.51,17.51,0,0,1,251.62,147.06Z"/><path class="cls-1" d="M251.62,52.75h0a9.4,9.4,0,0,1-4.69,8.13h0a9.41,9.41,0,0,1-9.38,0l-4.69-2.71-.63-.37-8.76-5-.63-.37L213.45,47l-.64-.36-8.75-5.05-.63-.37L194,35.76l-.63-.37-8.75-5.05L184,30l-9.39-5.42-.63-.37-6-3.49a6.7,6.7,0,0,0-6.68,0l-6,3.49-.64.37h0a6.68,6.68,0,0,0,0,11.57h0l.64.37,8.75,5,.63.36,4.69,2.71A9.37,9.37,0,0,1,174,52.74h0a9.4,9.4,0,0,1-4.69,8.13h0a9.41,9.41,0,0,1-9.38,0l-4.69-2.71-.64-.37-8.75-5-.63-.37L135.83,47l-.63-.36-8.75-5.05-.64-.37-4.69-2.71a9.37,9.37,0,0,1-4.69-8.13h0a9.38,9.38,0,0,1,4.69-8.13l4.69-2.71.63-.36,8.76-5.05.63-.37,9.38-5.41.64-.37,8.75-5.06.64-.37h0a18.77,18.77,0,0,1,18.76,0h0l.63.37,8.76,5.06.63.37,9.39,5.41.63.37,8.75,5.05.63.36h0l9.38,5.43.64.36,8.74,5.05.64.37,9.39,5.42.63.36,8.75,5.06.63.36h0l4.69,2.71A9.4,9.4,0,0,1,251.62,52.75Z"/></g></g></svg>