<svg xmlns="http://www.w3.org/2000/svg" viewBox="0 0 770.35 581.87"><defs><style>.cls-1{fill:#f8f8f8;}</style></defs><g id="Layer_2" data-name="Layer 2"><g id="Layer_1-2" data-name="Layer 1"><path class="cls-1" d="M25.44,488.24a4.18,4.18,0,0,1,4.14,3.17l10.14,35.93H27.2L21.3,501.9c-.15-.72-.28-1.47-.39-2.24s-.21-1.52-.28-2.24H19.1c-.08.72-.17,1.46-.29,2.24s-.24,1.52-.4,2.24l-5.89,25.44H0l10.14-35.93a4.18,4.18,0,0,1,4.14-3.17Zm4.82,22v8.61H9.46v-8.61Z"/><path class="cls-1" d="M64.42,487.67a33.78,33.78,0,0,1,9.41,1.08,9.34,9.34,0,0,1,5.35,3.66,12.66,12.66,0,0,1,1.73,7.16,12.79,12.79,0,0,1-.71,4.34,7,7,0,0,1-2.43,3.31A9.65,9.65,0,0,1,73,508.87v.34a8.45,8.45,0,0,1,2.38.65,6.66,6.66,0,0,1,2.43,1.81,7.48,7.48,0,0,1,1.59,3.66l3.06,12H69.58L67,515.72a3.5,3.5,0,0,0-1-2.15,4,4,0,0,0-2.29-.51q-4.26-.06-6.94-.06c-1.8,0-3.32,0-4.56,0s-2.5-.1-3.74-.17l.17-8.39H64.14a8.42,8.42,0,0,0,2.72-.34,2.13,2.13,0,0,0,1.33-1.22,8.5,8.5,0,0,0,0-5,2.17,2.17,0,0,0-1.33-1.19,8.71,8.71,0,0,0-2.72-.34c-3.93,0-7.23,0-9.92.06s-4.51.11-5.49.23l-.91-8.39c1.74-.19,3.37-.32,4.9-.4s3.21-.12,5.05-.14S61.82,487.67,64.42,487.67Zm-4.53.57v39.1H47.82v-39.1Z"/><path class="cls-1" d="M123.29,488.24v9.18H89.13v-9.18Zm-10.93,0v39.1h-12.3v-39.1Z"/><path class="cls-1" d="M144.71,488.24v39.1H132.53v-39.1Z"/><path class="cls-1" d="M165.51,488l6.79,0c2.35,0,4.63.09,6.86.2a60.07,60.07,0,0,1,6,.57l-.57,8.61H171a2.62,2.62,0,0,0-1.79.57,1.86,1.86,0,0,0-.65,1.47v27.88h-12.3V496.91a8.44,8.44,0,0,1,2.61-6.43A9.37,9.37,0,0,1,165.51,488Zm-8.28,16H182.5v8.16H157.23Z"/><path class="cls-1" d="M206.75,488.24v39.1H194.57v-39.1Z"/><path class="cls-1" d="M235,487.56c2,0,3.78.06,5.21.17s2.75.28,3.94.48a33.51,33.51,0,0,1,3.71.88l-.9,9c-1.33,0-2.55-.05-3.69-.05l-3.62,0c-1.29,0-2.83,0-4.65,0a3.88,3.88,0,0,0-4.42,3.77,46.56,46.56,0,0,0,0,12.18,3.88,3.88,0,0,0,4.42,3.77q4.25,0,7.11-.09c1.91,0,3.81-.18,5.7-.37l.9,9a31.15,31.15,0,0,1-6,1.44A58.32,58.32,0,0,1,235,528q-6.45,0-10.37-2a11.54,11.54,0,0,1-5.64-6.37q-1.72-4.43-1.72-11.9t1.72-11.9a11.51,11.51,0,0,1,5.64-6.37Q228.52,487.55,235,487.56Z"/><path class="cls-1" d="M270.55,488.24v39.1H258.37v-39.1Z"/><path class="cls-1" d="M304.15,488.24a4.18,4.18,0,0,1,4.14,3.17l10.14,35.93H305.91L300,501.9c-.15-.72-.29-1.47-.4-2.24s-.21-1.52-.28-2.24h-1.53c-.08.72-.17,1.46-.29,2.24s-.24,1.52-.39,2.24l-5.9,25.44H278.71l10.14-35.93a4.18,4.18,0,0,1,4.14-3.17Zm4.82,22v8.61h-20.8v-8.61Z"/><path class="cls-1" d="M338.71,488.24v27.31a1.83,1.83,0,0,0,.66,1.47,2.52,2.52,0,0,0,1.73.57h13.14l.57,9.18a88.84,88.84,0,0,1-9.32.68c-3.31.08-6.57.11-9.78.11a9.28,9.28,0,0,1-6.77-2.46,8.59,8.59,0,0,1-2.52-6.43V488.24Z"/><path class="cls-1" d="M392.37,488.24v39.1H380.19v-39.1Z"/><path class="cls-1" d="M440,488.24v34.85q0,4.24-4.25,4.25H431a4,4,0,0,1-2.87-.91,11.23,11.23,0,0,1-1.89-2.66l-8.5-13.43a27.05,27.05,0,0,1-1.45-3.2c-.43-1.15-.82-2.32-1.16-3.49h-.4c.19,1.17.33,2.37.43,3.6s.14,2.41.14,3.54v16.55H404V492.49q0-4.25,4.25-4.25h4.7a3.84,3.84,0,0,1,2.83.91,12.83,12.83,0,0,1,1.93,2.66l8.16,12.81c.53.94,1.05,2,1.56,3.11s1,2.33,1.44,3.57h.4c-.15-1.21-.28-2.4-.37-3.57s-.14-2.34-.14-3.51l-.06-16Z"/><path class="cls-1" d="M483.26,488.24v9.18H449.09v-9.18Zm-10.94,0v39.1H460v-39.1Z"/><path class="cls-1" d="M501.33,488l7,0q3.6,0,7.05.17c2.31.1,4.4.28,6.29.54l-.57,8.67H506.77a2.41,2.41,0,0,0-1.7.57,1.87,1.87,0,0,0-.62,1.47v16.66a1.88,1.88,0,0,0,.62,1.47,2.41,2.41,0,0,0,1.7.57H521.1l.57,8.67c-1.89.22-4,.39-6.29.51s-4.65.18-7.05.2l-7,0a9.18,9.18,0,0,1-6.6-2.46,8.49,8.49,0,0,1-2.58-6.43V496.91a8.49,8.49,0,0,1,2.58-6.43A9.18,9.18,0,0,1,501.33,488Zm-8.16,15.25h25.89v8.15H493.17Z"/><path class="cls-1" d="M544.05,488.24v27.31a1.85,1.85,0,0,0,.65,1.47,2.54,2.54,0,0,0,1.73.57h13.15l.56,9.18a88.64,88.64,0,0,1-9.32.68c-3.3.08-6.56.11-9.77.11a9.26,9.26,0,0,1-6.77-2.46,8.59,8.59,0,0,1-2.52-6.43V488.24Z"/><path class="cls-1" d="M578,488l7,0q3.6,0,7,.17c2.31.1,4.4.28,6.29.54l-.56,8.67H583.43a2.43,2.43,0,0,0-1.7.57,1.87,1.87,0,0,0-.62,1.47v16.66a1.88,1.88,0,0,0,.62,1.47,2.43,2.43,0,0,0,1.7.57h14.34l.56,8.67c-1.89.22-4,.39-6.29.51s-4.65.18-7,.2l-7,0a9.18,9.18,0,0,1-6.6-2.46,8.49,8.49,0,0,1-2.58-6.43V496.91a8.49,8.49,0,0,1,2.58-6.43A9.18,9.18,0,0,1,578,488Zm-8.16,15.25h25.9v8.15h-25.9Z"/><path class="cls-1" d="M625.42,487.45c2.07,0,3.9.05,5.46.17s3,.28,4.37.51a32.06,32.06,0,0,1,4,1l-.91,8.84c-1.43,0-2.8-.06-4.1-.06l-4.06,0-4.76,0a7.58,7.58,0,0,0-2.72.42,3.44,3.44,0,0,0-1.7,1.53,8.75,8.75,0,0,0-.87,3.06,39.45,39.45,0,0,0-.26,5,30.42,30.42,0,0,0,.46,6.09,4,4,0,0,0,4.53,3.77c.83,0,1.59,0,2.29-.09a16,16,0,0,0,1.9-.25l1.36-.29,1.19,5.16a11.74,11.74,0,0,1-2.24,2.55,13.58,13.58,0,0,1-3.94,2.41,14.19,14.19,0,0,1-5.49,1,12.62,12.62,0,0,1-7.37-2,11.73,11.73,0,0,1-4.25-6.49A42.15,42.15,0,0,1,607,507.79q0-7.53,1.79-12a11.62,11.62,0,0,1,5.83-6.41Q618.67,487.45,625.42,487.45Zm15.52,17.39v22.5h-9.06l-1.59-6.07-1.13-2.09V504.84Z"/><path class="cls-1" d="M660.55,488l7,0q3.6,0,7.06.17t6.29.54l-.57,8.67H666a2.41,2.41,0,0,0-1.7.57,1.88,1.88,0,0,0-.63,1.47v16.66a1.89,1.89,0,0,0,.63,1.47,2.41,2.41,0,0,0,1.7.57h14.33l.57,8.67q-2.83.33-6.29.51t-7.06.2l-7,0a9.14,9.14,0,0,1-6.6-2.46,8.49,8.49,0,0,1-2.58-6.43V496.91a8.49,8.49,0,0,1,2.58-6.43A9.15,9.15,0,0,1,660.55,488Zm-8.16,15.25h25.89v8.15H652.39Z"/><path class="cls-1" d="M727.07,488.24v34.85q0,4.24-4.25,4.25h-4.71a4,4,0,0,1-2.86-.91,11.52,11.52,0,0,1-1.9-2.66l-8.49-13.43a25.53,25.53,0,0,1-1.45-3.2c-.44-1.15-.82-2.32-1.16-3.49h-.4c.19,1.17.33,2.37.43,3.6s.14,2.41.14,3.54v16.55H691.09V492.49c0-2.83,1.41-4.25,4.25-4.25H700a3.84,3.84,0,0,1,2.83.91,12.83,12.83,0,0,1,1.93,2.66L713,504.62c.53.94,1,2,1.56,3.11s1,2.33,1.44,3.57h.4c-.15-1.21-.28-2.4-.37-3.57s-.14-2.34-.14-3.51l-.06-16Z"/><path class="cls-1" d="M770.35,488.24v9.18H736.19v-9.18Zm-10.93,0v39.1h-12.3v-39.1Z"/><path class="cls-1" d="M24.67,550.27v3.86H.44v-3.86Zm-9.89,0v31H10.29v-31Z"/><path class="cls-1" d="M71,549.86a18.44,18.44,0,0,1,6,.79,5.66,5.66,0,0,1,3.3,2.74,11.86,11.86,0,0,1,1,5.46,12.6,12.6,0,0,1-.59,4.14,5.42,5.42,0,0,1-1.82,2.61,6.85,6.85,0,0,1-3.35,1.21V567a4.42,4.42,0,0,1,1.53.72,6.25,6.25,0,0,1,1.44,1.46,6.12,6.12,0,0,1,1,2.31l2.92,9.76H77.64l-2.7-9.67a4.79,4.79,0,0,0-1.48-2.42,4,4,0,0,0-2.48-.72c-1.89,0-3.51,0-4.85,0s-2.48,0-3.4-.06-1.66,0-2.22,0l.13-3.6H70.89a11,11,0,0,0,3.46-.51,3.2,3.2,0,0,0,1.83-1.69,8.44,8.44,0,0,0,.56-3.42,8.25,8.25,0,0,0-.56-3.39,3.19,3.19,0,0,0-1.83-1.66,10,10,0,0,0-3.46-.48c-2.51,0-4.69,0-6.52,0s-3.06,0-3.68,0l-.63-3.41c1.14-.12,2.21-.21,3.23-.27s2.14-.1,3.35-.12Zm-6.47.41v31H60.06v-31Z"/><path class="cls-1" d="M131.27,550.27a1.72,1.72,0,0,1,1,.33,1.8,1.8,0,0,1,.63.88l9.8,29.81h-4.68l-7.73-24.95c-.12-.42-.24-.86-.36-1.33s-.24-.89-.36-1.28h-1.26c-.12.39-.24.82-.36,1.28s-.25.91-.4,1.33l-7.74,24.95h-4.63l9.8-29.81a1.8,1.8,0,0,1,.63-.88,1.72,1.72,0,0,1,1-.33Zm5.58,17.85v3.73H121v-3.73Z"/><path class="cls-1" d="M201.73,550.27v29.27c0,1.17-.56,1.75-1.67,1.75H196.2a1.83,1.83,0,0,1-1.2-.36,3,3,0,0,1-.74-1l-10.16-21c-.27-.59-.58-1.28-.94-2a13.47,13.47,0,0,1-.81-2.14h-.68c.06.69.11,1.39.14,2.09s0,1.42,0,2.14v22.3h-4.4V552a1.53,1.53,0,0,1,1.71-1.75h3.73a1.88,1.88,0,0,1,1.21.36,2.81,2.81,0,0,1,.77,1l9.8,20.41q.5.95,1.05,2.16c.38.81.74,1.6,1.1,2.38h.72c-.06-.81-.1-1.61-.13-2.4s0-1.58,0-2.36V550.27Z"/><path class="cls-1" d="M248.75,549.73c1.5,0,3.05.1,4.66.22a32.79,32.79,0,0,1,4.79.72l-.32,3.19c-1.29-.06-2.73-.1-4.34-.13s-3.15-.05-4.65-.05q-1.57,0-2.7.09a4.45,4.45,0,0,0-1.84.5,2.4,2.4,0,0,0-1.06,1.3A7.43,7.43,0,0,0,243,558a4.89,4.89,0,0,0,.89,3.35,5.79,5.79,0,0,0,2.93,1.47l6.25,1.66q3.59.9,4.94,3a10.67,10.67,0,0,1,1.35,5.74,12.83,12.83,0,0,1-.61,4.36,5.14,5.14,0,0,1-1.89,2.56,8.14,8.14,0,0,1-3.3,1.26,27.85,27.85,0,0,1-4.81.36c-1,0-2.37-.05-4.05-.14a43.54,43.54,0,0,1-5.8-.76l.32-3.28,4.34.16c1.12,0,2.09.06,2.9.06h2.42a15.17,15.17,0,0,0,3.56-.33,2.76,2.76,0,0,0,1.84-1.35,6.44,6.44,0,0,0,.54-3,7,7,0,0,0-.38-2.58,2.88,2.88,0,0,0-1.22-1.42,7.65,7.65,0,0,0-2.13-.81l-6.43-1.75a7.75,7.75,0,0,1-4.79-3,10.28,10.28,0,0,1-1.37-5.66,12.83,12.83,0,0,1,.61-4.36,4.87,4.87,0,0,1,1.86-2.5,7.85,7.85,0,0,1,3.19-1.12A32.32,32.32,0,0,1,248.75,549.73Z"/><path class="cls-1" d="M306.75,549.86a17.5,17.5,0,0,1,6.07.86,5.6,5.6,0,0,1,3.22,3,14.9,14.9,0,0,1,1,6,15.11,15.11,0,0,1-.94,6,5.45,5.45,0,0,1-3.08,3,16.1,16.1,0,0,1-5.69.83c-1.29,0-2.52,0-3.71-.09s-2.27-.15-3.26-.27-1.83-.25-2.54-.38a8.17,8.17,0,0,1-1.46-.38l.14-2.61h10.25a10.18,10.18,0,0,0,3.42-.54,3.14,3.14,0,0,0,1.79-1.8,10,10,0,0,0,.54-3.69,10.11,10.11,0,0,0-.54-3.73,3.24,3.24,0,0,0-1.79-1.82,9.31,9.31,0,0,0-3.42-.52q-3.78,0-6.52,0c-1.83,0-3.06.07-3.69.13l-.63-3.5q1.71-.18,3.24-.27t3.33-.12Zm-6.38.41v31h-4.5v-31Z"/><path class="cls-1" d="M364.53,549.68a18.37,18.37,0,0,1,5.82.81,8,8,0,0,1,3.84,2.65,12,12,0,0,1,2.1,5,45.64,45.64,0,0,1,0,15.35,12,12,0,0,1-2.1,5,8,8,0,0,1-3.84,2.66,21.57,21.57,0,0,1-11.64,0,8.07,8.07,0,0,1-3.87-2.66,11.88,11.88,0,0,1-2.14-5,44.29,44.29,0,0,1,0-15.35,11.91,11.91,0,0,1,2.14-5,8.12,8.12,0,0,1,3.87-2.65A18.32,18.32,0,0,1,364.53,549.68Zm0,3.91a8.32,8.32,0,0,0-4.63,1.13,6.17,6.17,0,0,0-2.41,3.75,38.36,38.36,0,0,0,0,14.59,6.19,6.19,0,0,0,2.41,3.78,8.33,8.33,0,0,0,4.63,1.12,8.2,8.2,0,0,0,4.6-1.12,6.27,6.27,0,0,0,2.41-3.78,37.32,37.32,0,0,0,0-14.59,6.26,6.26,0,0,0-2.41-3.75A8.19,8.19,0,0,0,364.53,553.59Z"/><path class="cls-1" d="M424.91,549.86a18.48,18.48,0,0,1,6,.79,5.66,5.66,0,0,1,3.3,2.74,11.86,11.86,0,0,1,1,5.46,12.6,12.6,0,0,1-.59,4.14,5.42,5.42,0,0,1-1.82,2.61,6.89,6.89,0,0,1-3.35,1.21V567a4.42,4.42,0,0,1,1.53.72,6.25,6.25,0,0,1,1.44,1.46,6.12,6.12,0,0,1,1,2.31l2.92,9.76h-4.77l-2.69-9.67a4.73,4.73,0,0,0-1.49-2.42,4,4,0,0,0-2.47-.72q-2.84,0-4.86,0c-1.34,0-2.48,0-3.39-.06s-1.66,0-2.23,0l.14-3.6h10.25a11,11,0,0,0,3.46-.51,3.16,3.16,0,0,0,1.82-1.69,8.27,8.27,0,0,0,.56-3.42,8.08,8.08,0,0,0-.56-3.39,3.14,3.14,0,0,0-1.82-1.66,10,10,0,0,0-3.46-.48q-3.78,0-6.52,0c-1.83,0-3.06,0-3.69,0l-.63-3.41q1.71-.18,3.24-.27c1-.06,2.14-.1,3.35-.12Zm-6.47.41v31H414v-31Z"/><path class="cls-1" d="M493.61,550.27v3.86H469.38v-3.86Zm-9.89,0v31h-4.5v-31Z"/><path class="cls-1" d="M539,550.27a1.72,1.72,0,0,1,1,.33,1.8,1.8,0,0,1,.63.88l9.8,29.81h-4.68L538,556.34c-.12-.42-.24-.86-.36-1.33s-.24-.89-.36-1.28h-1.26c-.12.39-.24.82-.36,1.28s-.25.91-.4,1.33l-7.74,24.95h-4.63l9.8-29.81a1.76,1.76,0,0,1,.64-.88,1.67,1.67,0,0,1,1-.33Zm5.58,17.85v3.73H528.72v-3.73Z"/><path class="cls-1" d="M604,550.27v3.86H579.75v-3.86Zm-9.89,0v31h-4.5v-31Z"/><path class="cls-1" d="M643.87,550.27v31h-4.5v-31Z"/><path class="cls-1" d="M693.32,549.68a18.32,18.32,0,0,1,5.82.81,8,8,0,0,1,3.85,2.65,12,12,0,0,1,2.09,5,45.64,45.64,0,0,1,0,15.35,12,12,0,0,1-2.09,5,8,8,0,0,1-3.85,2.66,21.57,21.57,0,0,1-11.64,0,8.16,8.16,0,0,1-3.87-2.66,12,12,0,0,1-2.13-5,43.65,43.65,0,0,1,0-15.35,12,12,0,0,1,2.13-5,8.21,8.21,0,0,1,3.87-2.65A18.32,18.32,0,0,1,693.32,549.68Zm0,3.91a8.35,8.35,0,0,0-4.63,1.13,6.12,6.12,0,0,0-2.4,3.75,38.36,38.36,0,0,0,0,14.59,6.13,6.13,0,0,0,2.4,3.78,8.35,8.35,0,0,0,4.63,1.12,8.21,8.21,0,0,0,4.61-1.12,6.32,6.32,0,0,0,2.41-3.78,37.32,37.32,0,0,0,0-14.59,6.3,6.3,0,0,0-2.41-3.75A8.21,8.21,0,0,0,693.32,553.59Z"/><path class="cls-1" d="M767.06,550.27v29.27c0,1.17-.56,1.75-1.67,1.75h-3.86a1.78,1.78,0,0,1-1.19-.36,2.76,2.76,0,0,1-.74-1l-10.17-21c-.27-.59-.58-1.28-.94-2a13.47,13.47,0,0,1-.81-2.14H747c.06.69.1,1.39.13,2.09s.05,1.42.05,2.14v22.3h-4.41V552a1.53,1.53,0,0,1,1.71-1.75h3.73a1.88,1.88,0,0,1,1.21.36,2.81,2.81,0,0,1,.77,1l9.8,20.41c.33.63.68,1.35,1.06,2.16l1.1,2.38h.72c-.06-.81-.11-1.61-.14-2.4s0-1.58,0-2.36V550.27Z"/><path class="cls-1" d="M448.6,321.62V344a9.39,9.39,0,0,1-4.69,8.13h0a9.43,9.43,0,0,1-9.39,0h0a9.36,9.36,0,0,1-4.68-8.12V321.62a9.39,9.39,0,0,1,4.68-8.13h0a9.36,9.36,0,0,1,9.38,0h0A9.4,9.4,0,0,1,448.6,321.62Z"/><path class="cls-1" d="M526.21,254.4v44.82a9.4,9.4,0,0,1-4.69,8.13h0a9.41,9.41,0,0,1-9.38,0h0a9.4,9.4,0,0,1-4.69-8.13V254.4a9.37,9.37,0,0,1,4.69-8.12h0a9.36,9.36,0,0,1,9.38,0h0A9.37,9.37,0,0,1,526.21,254.4Z"/><path class="cls-1" d="M487.41,232v89.62a9.4,9.4,0,0,1-4.69,8.13h0a9.36,9.36,0,0,1-9.38,0h0a9.37,9.37,0,0,1-4.69-8.12V232a9.39,9.39,0,0,1,4.69-8.13h0a9.36,9.36,0,0,1,9.38,0h0A9.39,9.39,0,0,1,487.41,232Z"/><path class="cls-1" d="M448.6,253.65v17.74a18.76,18.76,0,0,1-9.38,16.25h0l-.65.37-8.74,5.05-.64.37-9.39,5.42-.62.36h0a18.78,18.78,0,0,0-9.39,16.26v51a9.39,9.39,0,0,1-18.77,0v-61.8a18.77,18.77,0,0,1,9.41-16.27L401,288l8.75-5.06.63-.36,9.39-5.42.63-.37h0a18.75,18.75,0,0,0,9.39-16.24v-6.89a9.34,9.34,0,0,1,4.72-8.12l.05,0a9.39,9.39,0,0,1,9.32,0h0A9.37,9.37,0,0,1,448.6,253.65Z"/><path class="cls-1" d="M371,215V344a9.36,9.36,0,0,1-4.68,8.12h0a9.4,9.4,0,0,1-9.4,0h0a9.37,9.37,0,0,1-4.69-8.12V225.85a18.74,18.74,0,0,0-9.38-16.25h0l-.63-.37-9.38-5.41-.64-.37-8.75-5.05h0l-.63-.36h0l-4.69-2.71a9.4,9.4,0,0,1-4.69-8.13h0a9.37,9.37,0,0,1,4.69-8.12h0a9.36,9.36,0,0,1,9.38,0l4.7,2.71.64.37,8.74,5,.64.37,9.39,5.42.63.37,8.75,5,.63.37h0A18.76,18.76,0,0,1,371,215Z"/><path class="cls-1" d="M293.36,252.35v46.87a9.39,9.39,0,0,1-4.69,8.12h0a9.36,9.36,0,0,1-9.38,0h0a9.37,9.37,0,0,1-4.69-8.12V263.68a6.71,6.71,0,0,0-3.34-5.79l-6.05-3.49-.64-.37-5.45-3.14a3,3,0,0,0-4.56,2.64v23.28a9.37,9.37,0,0,1-4.69,8.12h0a9.4,9.4,0,0,1-9.39,0h0a9.37,9.37,0,0,1-4.69-8.12v-51a5.83,5.83,0,0,1,8.74-5.05h0l.64.37,9.39,5.42.63.37,8.75,5.05.63.36,9.39,5.43.64.36,8.74,5,.64.37,6.47,3.73A5.84,5.84,0,0,1,293.36,252.35Z"/><path class="cls-1" d="M565,103v39.39a9.39,9.39,0,0,1-4.69,8.13h0a9.36,9.36,0,0,1-9.38,0h0a9.39,9.39,0,0,1-4.7-8.13V113.82a18.77,18.77,0,0,0-9.39-16.26h0l-.63-.37-9.38-5.41-.64-.37-8.75-5-.63-.37-4.69-2.71a9.37,9.37,0,0,1-4.69-8.12h0A9.39,9.39,0,0,1,512.14,67h0a9.36,9.36,0,0,1,9.38,0l4.69,2.71.64.36,8.75,5.06.64.36,9.38,5.42.63.36L555,86.36l.63.37h0A18.74,18.74,0,0,1,565,103Z"/><path class="cls-1" d="M332.17,237.42v84.2a9.4,9.4,0,0,1-4.69,8.13h0a9.43,9.43,0,0,1-9.39,0h0a9.4,9.4,0,0,1-4.69-8.13V248.25A18.76,18.76,0,0,0,304,232h0l-.63-.37L294,226.21l-.64-.36-8.75-5.06-.63-.36L274.6,215l-.64-.36-8.75-5.06-.64-.37-9.38-5.41-.63-.37-8.76-5.05-.63-.36-4.69-2.71a9.38,9.38,0,0,1-4.69-8.13h0a9.35,9.35,0,0,1,4.69-8.12h0a9.36,9.36,0,0,1,9.38,0l4.7,2.71.63.37,8.75,5,.63.37L274,193l.64.36,8.74,5,.64.37,9.38,5.41.64.37,8.75,5.05.63.37,9.39,5.42.63.36,8.75,5,.63.37h0A18.77,18.77,0,0,1,332.17,237.42Z"/><path class="cls-1" d="M565,187.17c0,17.51,0,72.51,0,89.8a9.09,9.09,0,0,1-4.56,7.88l-.23.14a9.15,9.15,0,0,1-9.15,0l-.14-.09a9.36,9.36,0,0,1-4.7-8.12V215a6.68,6.68,0,0,0-10-5.79h0l-.64.37-8.75,5.06-.64.36-4.82,2.79a9.12,9.12,0,0,1-9.11,0l-.11-.07a9.38,9.38,0,0,1-4.72-8.14V136.22A18.75,18.75,0,0,0,498.06,120h0l-.64-.37L488,114.18l-.63-.37-8.75-5-.64-.36L468.64,103l-.64-.37-8.75-5-.64-.37-9.38-5.41-.63-.37-8.75-5-.63-.37-4.7-2.71a9.38,9.38,0,0,1-4.69-8.13h0A9.37,9.37,0,0,1,434.52,67h0a9.38,9.38,0,0,1,9.39,0l4.69,2.71.63.36L458,75.16l.63.36L468,80.94l.64.36,8.75,5.06.63.37h0l9.38,5.41.63.37,8.75,5,.63.37,9.39,5.42.64.36,8.74,5.05h0l.63.37h0a18.76,18.76,0,0,1,9.38,16.25v56.39a6.69,6.69,0,0,0,10,5.78h0l.63-.37,8.75-5,.63-.37,4.84-2.8a9.13,9.13,0,0,1,9.1,0l.14.08A9.37,9.37,0,0,1,565,187.17Z"/><path class="cls-1" d="M409.79,191.87v63.27a8.11,8.11,0,0,1-4.06,7l-1.27.74a8.15,8.15,0,0,1-8.11,0l-1.27-.74a8.11,8.11,0,0,1-4.06-7v-51.7a18.78,18.78,0,0,0-9.39-16.26h0l-.63-.36-9.38-5.42L371,181,362.23,176l-.63-.37-9.39-5.41-.63-.37-8.75-5.05-.63-.37L332.81,159l-.64-.36-8.75-5-.63-.37-.63.37-8.76,5-.63.36-9.39,5.42-.64.37L294,169.83l-.64.37-.64.37a17.49,17.49,0,0,1-17.49,0l-.63-.37-.64-.37-8.75-5.05-.64-.37L255.19,159l-.63-.37-8.76-5-.63-.37h0l-5.32-3.07a8.11,8.11,0,0,1-4.05-7v-1.47a8.11,8.11,0,0,1,4.05-7l1.27-.73a8.1,8.1,0,0,1,8.11,0l5.34,3.08.63.36,8.75,5.05.63.37,9.39,5.42.64.37,8.74,5.05.63.36.64-.36,8.75-5.05.64-.37,9.38-5.42h0l.64-.37,8.75-5.05.63-.36,9.38-5.42,9.39,5.42.64.36,8.74,5.05.64.37,9.39,5.42.63.37,8.75,5.05.63.36,9.39,5.42.64.37,8.74,5.05.64.37,9.39,5.42.63.36,8.74,5,.64.37.64.37A17.5,17.5,0,0,1,409.79,191.87Z"/><path class="cls-1" d="M332.81,92.51a5.83,5.83,0,0,1,0,10.1h0l-.64.37-9.38,5.42-.63.36-8.76,5-.63.37-9.39,5.42-.64.37L294,125l-.64.36h0a18.72,18.72,0,0,1-18.76,0h0L274,125l-8.75-5-.63-.37-9.39-5.42-.63-.37-8.75-5-.64-.36-4.69-2.71a9.4,9.4,0,0,1-4.69-8.13h0a9.35,9.35,0,0,1,4.69-8.12h0a9.41,9.41,0,0,1,9.38,0l4.7,2.71.63.37,8.75,5,.63.37,9.39,5.42.64.36,7.82,4.52a3.11,3.11,0,0,0,3.12,0l7.82-4.52.64-.36,5.34-3.09a3.12,3.12,0,0,0,0-5.4L294,91.77l-.64-.36-8.74-5L284,86l-4.69-2.71a9.35,9.35,0,0,1-4.69-8.12h0A9.38,9.38,0,0,1,279.29,67h0a9.41,9.41,0,0,1,9.38,0l4.69,2.71.64.37,8.75,5.06.64.36,9.38,5.41.63.37,8.76,5.06.63.36,9.38,5.42.64.37Z"/><path class="cls-1" d="M487.41,147.06V182.5a17.5,17.5,0,0,1-8.75,15.15L478,198l-.64.37-8.75,5.05-.64.37-9.39,5.41-.63.37-8.75,5-.63.37-5.33,3.07a8.1,8.1,0,0,1-8.11,0l-1.27-.73a8.1,8.1,0,0,1-4.06-7V170.2l-.64-.37-8.75-5.05-.63-.37L410.42,159l-.63-.36-8.74-5-.65-.37L391,147.79l-.63-.37-8.75-5L381,142l-9.38-5.42-.64-.37-8.75-5.05-.63-.37-9.39-5.42-.63-.36-1.91-1.1a4.56,4.56,0,0,1,0-7.9l1.91-1.11.63-.36,9.39-5.42.63-.37,8.75-5.05.64-.37L381,97.93l.63-.37-.63-.37-9.38-5.41-.64-.37-8.75-5-.64-.37-9.38-5.42-.63-.36-8.75-5-.63-.37-9.39-5.42-.64-.37-8.75-5-.63-.37-5.33-3.07a8.12,8.12,0,0,1-4.06-7V52a8.13,8.13,0,0,1,4.05-7l1.28-.74a8.12,8.12,0,0,1,8.12,0l5.32,3.08.64.36,8.75,5.06.64.37,9.38,5.41.63.37L361,64l.62.36h0L371,69.73l.64.37,8.74,5.06h0l.64.36,9.38,5.42.63.36,8.75,5,.63.37,5.33,3.07a8.12,8.12,0,0,1,4.06,7v1.47a8.12,8.12,0,0,1-4.06,7l-5.33,3.08-.63.36-8.75,5-.63.37h0a6.68,6.68,0,0,0,0,11.57h0l.63.36,8.75,5.06.63.36h0l9.38,5.42.63.37,8.76,5.05.63.37,9.38,5.41.64.37,8.75,5,.64.37.63.37a17.48,17.48,0,0,1,8.75,15.14V184a5.4,5.4,0,0,0,8.11,4.68l1.91-1.1.63-.37,6.68-3.85a5.41,5.41,0,0,0,2.71-4.69v-20a18.78,18.78,0,0,0-9.39-16.25h0l-.64-.36-9.38-5.42-.63-.37-8.75-5.05-.63-.37-5.34-3.07a8.11,8.11,0,0,1-4.05-7v-1.47a8.1,8.1,0,0,1,4.05-7l1.28-.74a8.1,8.1,0,0,1,8.11,0l5.33,3.07.63.37L458,120l.63.37,9.38,5.41.64.36,8.75,5,.64.37.63.37A17.52,17.52,0,0,1,487.41,147.06Z"/><path class="cls-1" d="M487.41,52.75h0a9.39,9.39,0,0,1-4.7,8.13h0a9.41,9.41,0,0,1-9.38,0l-4.69-2.71L468,57.8l-8.75-5-.64-.37L449.23,47l-.63-.36-8.75-5.05-.63-.37-9.39-5.42-.64-.37-8.75-5.05-.63-.36-9.39-5.42-.63-.37-6.05-3.49a6.7,6.7,0,0,0-6.68,0l-6,3.49-.63.37h0a6.67,6.67,0,0,0,0,11.57h0l.63.37,8.76,5,.62.36,4.7,2.71a9.37,9.37,0,0,1,4.69,8.12h0a9.4,9.4,0,0,1-4.69,8.13h0a9.43,9.43,0,0,1-9.39,0L391,58.17l-.63-.37-8.76-5-.62-.37L371.62,47,371,46.6l-8.75-5.05-.64-.37-4.68-2.71a9.38,9.38,0,0,1-4.7-8.13h0a9.39,9.39,0,0,1,4.7-8.13l4.68-2.71.64-.36L371,14.09l.64-.37L381,8.31l.63-.37,8.76-5.06.63-.37h0a18.78,18.78,0,0,1,18.77,0h0l.63.37,8.76,5.06.63.37,9.38,5.41.64.37,8.75,5.05.63.36h0l9.38,5.43.63.36L458,30.34l.64.37L468,36.13l.64.36,8.75,5.06.63.36h0l4.69,2.71A9.4,9.4,0,0,1,487.41,52.75Z"/></g></g></svg>